<svg width="250" height="250" viewBox="0 0 250 250" fill="none" xmlns="http://www.w3.org/2000/svg">
<path fill-rule="evenodd" clip-rule="evenodd" d="M125 16.2359L48.0921 48.0921L16.2358 125L48.0921 201.908L125 233.764L201.908 201.908L233.764 125L201.908 48.0921L125 16.2359ZM128.827 1.58512C126.376 0.570179 123.623 0.570179 121.173 1.58512L40.4384 35.0265C37.9881 36.0415 36.0414 37.9882 35.0265 40.4385L1.58506 121.173C0.570118 123.623 0.570118 126.377 1.58506 128.827L35.0265 209.562C36.0414 212.012 37.9881 213.959 40.4384 214.973L121.173 248.415C123.623 249.43 126.376 249.43 128.827 248.415L209.561 214.973C212.012 213.959 213.958 212.012 214.973 209.562L248.415 128.827C249.43 126.377 249.43 123.623 248.415 121.173L214.973 40.4385C213.958 37.9882 212.012 36.0415 209.561 35.0265L128.827 1.58512Z" fill="#E3AA0C"/>
<path d="M62.3819 180L117.74 54.51H130.2L185.558 180H170.428L156.544 147.96H91.2179L77.5119 180H62.3819ZM123.792 71.598L96.5579 135.678H151.382L124.148 71.598H123.792Z" fill="#E3AA0C"/>
</svg>
