<svg id="visual" viewBox="0 0 900 675" width="900" height="675" xmlns="http://www.w3.org/2000/svg" xmlns:xlink="http://www.w3.org/1999/xlink" version="1.1"><rect width="900" height="675" fill="#ffffff"></rect><g><g transform="translate(393 43)"><path d="M76.7 -97C96.7 -74.7 108.2 -47.9 108.2 -22.8C108.1 2.3 96.6 25.7 84.5 50.8C72.4 76 59.8 102.9 38.2 115.3C16.5 127.7 -14.2 125.6 -40.5 114.6C-66.7 103.5 -88.5 83.6 -96.6 60.2C-104.8 36.9 -99.4 10.2 -93.8 -15.6C-88.2 -41.5 -82.4 -66.4 -66.7 -89.4C-51 -112.4 -25.5 -133.6 1.4 -135.3C28.4 -137 56.8 -119.2 76.7 -97Z" fill="#ffe47a"></path></g><g transform="translate(421 425)"><path d="M61.2 -71.4C79.3 -57.8 93.9 -38.5 103.3 -14C112.6 10.5 116.7 40.1 106.4 64.6C96 89.1 71.2 108.4 46.1 110.5C21 112.6 -4.5 97.6 -35.7 89.8C-66.9 82.1 -103.9 81.7 -123.5 63.6C-143.1 45.5 -145.3 9.7 -139.4 -24.6C-133.4 -59 -119.2 -92.1 -94.6 -104.5C-70 -117 -35 -109 -6.7 -101C21.6 -93 43.1 -85 61.2 -71.4Z" fill="#ffe47a"></path></g><g transform="translate(122 662)"><path d="M48.9 -68.3C62.4 -46.9 71.7 -30.6 82 -9C92.4 12.6 103.7 39.5 95.8 57.3C87.9 75.1 60.8 83.7 36.5 86.5C12.3 89.4 -9 86.4 -27.2 78.2C-45.5 70.1 -60.6 56.9 -71.2 40.3C-81.9 23.6 -88.1 3.5 -90.4 -21.6C-92.7 -46.7 -91.1 -76.7 -75.4 -97.7C-59.7 -118.7 -29.9 -130.6 -6.1 -123.4C17.7 -116.1 35.4 -89.7 48.9 -68.3Z" fill="#ffe47a"></path></g><g transform="translate(867 115)"><path d="M78.4 -86.3C101.7 -73.8 121 -49.3 129.1 -20.3C137.1 8.7 134 42.1 118.5 68.1C103.1 94.1 75.4 112.6 45 123.6C14.7 134.6 -18.4 138 -41 124.7C-63.7 111.3 -75.8 81 -92.9 52.9C-109.9 24.8 -131.9 -1.2 -134.6 -30.3C-137.3 -59.5 -120.8 -91.9 -95.1 -104C-69.5 -116.1 -34.7 -108 -3.6 -103.7C27.5 -99.4 55 -98.8 78.4 -86.3Z" fill="#ffe47a"></path></g><g transform="translate(25 244)"><path d="M60.3 -82.2C74.4 -60 79.6 -37.5 86.1 -13.3C92.6 10.9 100.4 36.7 93.4 58.8C86.5 81 64.7 99.5 40.7 105.3C16.8 111.1 -9.3 104.3 -28.7 91.7C-48.1 79.1 -60.7 60.7 -78.9 40.2C-97.2 19.7 -121 -2.9 -118.8 -21.9C-116.6 -40.9 -88.3 -56.2 -64.2 -76.7C-40 -97.1 -20 -122.7 1.5 -124.5C23.1 -126.3 46.2 -104.4 60.3 -82.2Z" fill="#ffe47a"></path></g><g transform="translate(851 508)"><path d="M54.1 -63.5C68.1 -52.8 76 -33.8 82.9 -12.1C89.8 9.7 95.6 34.1 87.9 53.8C80.2 73.5 58.9 88.5 36.6 93.5C14.3 98.5 -9 93.7 -35.9 88.3C-62.7 83 -93.1 77.1 -102.7 59.7C-112.4 42.2 -101.3 13.1 -96 -16.9C-90.6 -46.9 -90.9 -77.8 -75.9 -88.4C-60.8 -98.9 -30.4 -89.1 -5.2 -82.9C20.1 -76.7 40.1 -74.3 54.1 -63.5Z" fill="#ffe47a"></path></g></g></svg>