<svg id="visual" viewBox="0 0 900 250" width="900" height="250" xmlns="http://www.w3.org/2000/svg" xmlns:xlink="http://www.w3.org/1999/xlink" version="1.1"><g stroke-width="1" stroke-linejoin="bevel"><path d="M442 159L402 126L404 134Z" fill="#ffe47a" stroke="#ffe47a"></path><path d="M442 159L452 77L402 126Z" fill="#ffe47a" stroke="#ffe47a"></path><path d="M442 159L503 100L452 77Z" fill="#fed657" stroke="#fed657"></path><path d="M402 126L370 123L404 134Z" fill="#fec72f" stroke="#fec72f"></path><path d="M379 208L446 218L442 159Z" fill="#fed960" stroke="#fed960"></path><path d="M394 42L370 123L402 126Z" fill="#fed657" stroke="#fed657"></path><path d="M442 159L504 160L503 100Z" fill="#fed24e" stroke="#fed24e"></path><path d="M536 50L503 72L503 100Z" fill="#fedd69" stroke="#fedd69"></path><path d="M503 100L503 72L452 77Z" fill="#fedd69" stroke="#fedd69"></path><path d="M465 25L394 42L452 77Z" fill="#fed657" stroke="#fed657"></path><path d="M452 77L394 42L402 126Z" fill="#fece44" stroke="#fece44"></path><path d="M379 208L442 159L404 134Z" fill="#ffbf0d" stroke="#ffbf0d"></path><path d="M442 159L446 218L504 160Z" fill="#fed657" stroke="#fed657"></path><path d="M503 72L465 25L452 77Z" fill="#fed24e" stroke="#fed24e"></path><path d="M572 186L543 124L504 160Z" fill="#fed960" stroke="#fed960"></path><path d="M504 160L543 124L503 100Z" fill="#ffe171" stroke="#ffe171"></path><path d="M370 123L379 208L404 134Z" fill="#fed24e" stroke="#fed24e"></path><path d="M374 0L354 45L394 42Z" fill="#ffc321" stroke="#ffc321"></path><path d="M394 42L354 45L370 123Z" fill="#fed960" stroke="#fed960"></path><path d="M370 123L345 201L379 208Z" fill="#ffbf0d" stroke="#ffbf0d"></path><path d="M354 45L331 84L370 123Z" fill="#fed24e" stroke="#fed24e"></path><path d="M573 83L536 50L503 100Z" fill="#fece44" stroke="#fece44"></path><path d="M503 72L536 50L465 25Z" fill="#fed24e" stroke="#fed24e"></path><path d="M480 0L424 0L465 25Z" fill="#fed960" stroke="#fed960"></path><path d="M465 25L424 0L394 42Z" fill="#fece44" stroke="#fece44"></path><path d="M446 218L526 208L504 160Z" fill="#ffe47a" stroke="#ffe47a"></path><path d="M292 172L345 201L370 123Z" fill="#ffc321" stroke="#ffc321"></path><path d="M536 50L480 0L465 25Z" fill="#fedd69" stroke="#fedd69"></path><path d="M379 208L436 250L446 218Z" fill="#fedd69" stroke="#fedd69"></path><path d="M446 218L472 250L526 208Z" fill="#fedd69" stroke="#fedd69"></path><path d="M381 250L436 250L379 208Z" fill="#ffe47a" stroke="#ffe47a"></path><path d="M314 29L311 93L331 84Z" fill="#fed657" stroke="#fed657"></path><path d="M331 84L311 93L370 123Z" fill="#ffc321" stroke="#ffc321"></path><path d="M436 250L472 250L446 218Z" fill="#fed657" stroke="#fed657"></path><path d="M424 0L374 0L394 42Z" fill="#fecb3a" stroke="#fecb3a"></path><path d="M354 45L314 29L331 84Z" fill="#ffc321" stroke="#ffc321"></path><path d="M543 124L573 83L503 100Z" fill="#ffbf0d" stroke="#ffbf0d"></path><path d="M536 50L554 0L480 0Z" fill="#ffbf0d" stroke="#ffbf0d"></path><path d="M588 130L573 83L543 124Z" fill="#fed24e" stroke="#fed24e"></path><path d="M350 250L381 250L379 208Z" fill="#ffe171" stroke="#ffe171"></path><path d="M602 187L572 186L595 250Z" fill="#fed24e" stroke="#fed24e"></path><path d="M526 208L572 186L504 160Z" fill="#fedd69" stroke="#fedd69"></path><path d="M572 186L588 130L543 124Z" fill="#fed657" stroke="#fed657"></path><path d="M311 93L289 131L370 123Z" fill="#fece44" stroke="#fece44"></path><path d="M345 201L350 250L379 208Z" fill="#fece44" stroke="#fece44"></path><path d="M374 0L314 29L354 45Z" fill="#ffe47a" stroke="#ffe47a"></path><path d="M311 93L262 119L289 131Z" fill="#fed24e" stroke="#fed24e"></path><path d="M289 131L292 172L370 123Z" fill="#fed960" stroke="#fed960"></path><path d="M293 250L350 250L345 201Z" fill="#fed960" stroke="#fed960"></path><path d="M604 65L536 50L573 83Z" fill="#fed960" stroke="#fed960"></path><path d="M592 0L554 0L536 50Z" fill="#fed24e" stroke="#fed24e"></path><path d="M635 114L606 89L588 130Z" fill="#fece44" stroke="#fece44"></path><path d="M588 130L606 89L573 83Z" fill="#fecb3a" stroke="#fecb3a"></path><path d="M606 89L604 65L573 83Z" fill="#ffe171" stroke="#ffe171"></path><path d="M566 250L572 186L526 208Z" fill="#fed24e" stroke="#fed24e"></path><path d="M572 186L602 187L588 130Z" fill="#ffbf0d" stroke="#ffbf0d"></path><path d="M236 29L262 119L311 93Z" fill="#fed24e" stroke="#fed24e"></path><path d="M289 131L261 133L292 172Z" fill="#fed960" stroke="#fed960"></path><path d="M262 119L261 133L289 131Z" fill="#ffe171" stroke="#ffe171"></path><path d="M292 172L274 208L345 201Z" fill="#ffe47a" stroke="#ffe47a"></path><path d="M472 250L566 250L526 208Z" fill="#fece44" stroke="#fece44"></path><path d="M261 133L274 208L292 172Z" fill="#ffe171" stroke="#ffe171"></path><path d="M602 187L631 143L588 130Z" fill="#fec72f" stroke="#fec72f"></path><path d="M606 89L658 39L604 65Z" fill="#fed657" stroke="#fed657"></path><path d="M674 124L631 143L675 172Z" fill="#fedd69" stroke="#fedd69"></path><path d="M644 0L592 0L604 65Z" fill="#fedd69" stroke="#fedd69"></path><path d="M604 65L592 0L536 50Z" fill="#fed657" stroke="#fed657"></path><path d="M631 143L635 114L588 130Z" fill="#fece44" stroke="#fece44"></path><path d="M274 208L293 250L345 201Z" fill="#fed960" stroke="#fed960"></path><path d="M374 0L280 0L314 29Z" fill="#fed960" stroke="#fed960"></path><path d="M314 29L236 29L311 93Z" fill="#fedd69" stroke="#fedd69"></path><path d="M566 250L595 250L572 186Z" fill="#fed657" stroke="#fed657"></path><path d="M274 208L265 250L293 250Z" fill="#ffc321" stroke="#ffc321"></path><path d="M212 250L265 250L274 208Z" fill="#ffc321" stroke="#ffc321"></path><path d="M280 0L236 29L314 29Z" fill="#ffe47a" stroke="#ffe47a"></path><path d="M262 119L211 104L261 133Z" fill="#fed657" stroke="#fed657"></path><path d="M261 133L209 147L274 208Z" fill="#fed24e" stroke="#fed24e"></path><path d="M236 29L211 104L262 119Z" fill="#fedd69" stroke="#fedd69"></path><path d="M211 104L209 147L261 133Z" fill="#fed24e" stroke="#fed24e"></path><path d="M635 114L658 39L606 89Z" fill="#fed24e" stroke="#fed24e"></path><path d="M674 124L658 39L635 114Z" fill="#fec72f" stroke="#fec72f"></path><path d="M675 172L631 143L675 175Z" fill="#ffc321" stroke="#ffc321"></path><path d="M631 143L674 124L635 114Z" fill="#fedd69" stroke="#fedd69"></path><path d="M280 0L239 0L236 29Z" fill="#fedd69" stroke="#fedd69"></path><path d="M236 29L222 23L211 104Z" fill="#fed657" stroke="#fed657"></path><path d="M658 39L644 0L604 65Z" fill="#fece44" stroke="#fece44"></path><path d="M239 0L222 23L236 29Z" fill="#fed960" stroke="#fed960"></path><path d="M675 175L631 143L602 187Z" fill="#ffe47a" stroke="#ffe47a"></path><path d="M668 250L675 175L602 187Z" fill="#ffc321" stroke="#ffc321"></path><path d="M239 0L226 0L222 23Z" fill="#ffc321" stroke="#ffc321"></path><path d="M163 143L198 192L209 147Z" fill="#fed24e" stroke="#fed24e"></path><path d="M209 147L198 192L274 208Z" fill="#fed657" stroke="#fed657"></path><path d="M163 143L209 147L211 104Z" fill="#fed24e" stroke="#fed24e"></path><path d="M198 192L212 250L274 208Z" fill="#fecb3a" stroke="#fecb3a"></path><path d="M595 250L668 250L602 187Z" fill="#fed657" stroke="#fed657"></path><path d="M723 58L677 0L658 39Z" fill="#fecb3a" stroke="#fecb3a"></path><path d="M658 39L677 0L644 0Z" fill="#ffe171" stroke="#ffe171"></path><path d="M723 58L658 39L674 124Z" fill="#ffe47a" stroke="#ffe47a"></path><path d="M709 172L674 124L675 172Z" fill="#fedd69" stroke="#fedd69"></path><path d="M713 250L709 172L675 175Z" fill="#fed960" stroke="#fed960"></path><path d="M675 175L709 172L675 172Z" fill="#fecb3a" stroke="#fecb3a"></path><path d="M136 74L164 103L222 23Z" fill="#fec72f" stroke="#fec72f"></path><path d="M222 23L164 103L211 104Z" fill="#fec72f" stroke="#fec72f"></path><path d="M198 192L143 218L212 250Z" fill="#ffe171" stroke="#ffe171"></path><path d="M164 103L163 143L211 104Z" fill="#fedd69" stroke="#fedd69"></path><path d="M753 96L723 58L674 124Z" fill="#fedd69" stroke="#fedd69"></path><path d="M668 250L713 250L675 175Z" fill="#fed657" stroke="#fed657"></path><path d="M709 172L753 96L674 124Z" fill="#ffe47a" stroke="#ffe47a"></path><path d="M151 0L136 74L222 23Z" fill="#ffe47a" stroke="#ffe47a"></path><path d="M164 103L121 105L163 143Z" fill="#fece44" stroke="#fece44"></path><path d="M105 163L143 218L163 143Z" fill="#fed24e" stroke="#fed24e"></path><path d="M163 143L143 218L198 192Z" fill="#fed24e" stroke="#fed24e"></path><path d="M226 0L151 0L222 23Z" fill="#ffc321" stroke="#ffc321"></path><path d="M768 173L753 96L709 172Z" fill="#ffbf0d" stroke="#ffbf0d"></path><path d="M723 58L746 46L677 0Z" fill="#ffc321" stroke="#ffc321"></path><path d="M753 96L746 46L723 58Z" fill="#fed960" stroke="#fed960"></path><path d="M97 27L121 105L136 74Z" fill="#ffe171" stroke="#ffe171"></path><path d="M136 74L121 105L164 103Z" fill="#fece44" stroke="#fece44"></path><path d="M96 208L144 250L143 218Z" fill="#fec72f" stroke="#fec72f"></path><path d="M143 218L144 250L212 250Z" fill="#fecb3a" stroke="#fecb3a"></path><path d="M770 208L768 173L709 172Z" fill="#fecb3a" stroke="#fecb3a"></path><path d="M777 0L769 0L746 46Z" fill="#ffbf0d" stroke="#ffbf0d"></path><path d="M151 0L126 0L136 74Z" fill="#ffe47a" stroke="#ffe47a"></path><path d="M121 105L105 163L163 143Z" fill="#fece44" stroke="#fece44"></path><path d="M75 148L105 163L121 105Z" fill="#fece44" stroke="#fece44"></path><path d="M713 250L770 208L709 172Z" fill="#fed960" stroke="#fed960"></path><path d="M777 0L746 46L824 59Z" fill="#ffe171" stroke="#ffe171"></path><path d="M746 46L769 0L677 0Z" fill="#fedd69" stroke="#fedd69"></path><path d="M746 46L753 96L824 64Z" fill="#fed24e" stroke="#fed24e"></path><path d="M64 192L96 208L105 163Z" fill="#fedd69" stroke="#fedd69"></path><path d="M105 163L96 208L143 218Z" fill="#ffe171" stroke="#ffe171"></path><path d="M126 0L97 27L136 74Z" fill="#ffe171" stroke="#ffe171"></path><path d="M813 102L753 96L814 142Z" fill="#ffbf0d" stroke="#ffbf0d"></path><path d="M713 250L775 250L770 208Z" fill="#fec72f" stroke="#fec72f"></path><path d="M770 208L800 217L768 173Z" fill="#ffe47a" stroke="#ffe47a"></path><path d="M23 101L75 148L121 105Z" fill="#ffbf0d" stroke="#ffbf0d"></path><path d="M775 250L783 250L770 208Z" fill="#fedd69" stroke="#fedd69"></path><path d="M783 250L800 217L770 208Z" fill="#ffbf0d" stroke="#ffbf0d"></path><path d="M814 142L753 96L768 173Z" fill="#ffc321" stroke="#ffc321"></path><path d="M800 217L814 142L768 173Z" fill="#ffbf0d" stroke="#ffbf0d"></path><path d="M64 192L85 250L96 208Z" fill="#fed24e" stroke="#fed24e"></path><path d="M96 208L85 250L144 250Z" fill="#ffe47a" stroke="#ffe47a"></path><path d="M126 0L77 0L97 27Z" fill="#fece44" stroke="#fece44"></path><path d="M97 27L23 101L121 105Z" fill="#fec72f" stroke="#fec72f"></path><path d="M0 172L64 192L75 148Z" fill="#fed657" stroke="#fed657"></path><path d="M75 148L64 192L105 163Z" fill="#fec72f" stroke="#fec72f"></path><path d="M857 114L824 64L813 102Z" fill="#fed24e" stroke="#fed24e"></path><path d="M813 102L824 64L753 96Z" fill="#ffc321" stroke="#ffc321"></path><path d="M824 64L824 59L746 46Z" fill="#fecb3a" stroke="#fecb3a"></path><path d="M783 250L825 225L800 217Z" fill="#ffe47a" stroke="#ffe47a"></path><path d="M800 217L825 225L814 142Z" fill="#fece44" stroke="#fece44"></path><path d="M857 129L857 114L813 102Z" fill="#ffc321" stroke="#ffc321"></path><path d="M900 29L835 0L824 59Z" fill="#fecb3a" stroke="#fecb3a"></path><path d="M824 59L835 0L777 0Z" fill="#fed24e" stroke="#fed24e"></path><path d="M900 91L824 59L824 64Z" fill="#ffe171" stroke="#ffe171"></path><path d="M0 176L44 250L64 192Z" fill="#ffe47a" stroke="#ffe47a"></path><path d="M64 192L44 250L85 250Z" fill="#ffe171" stroke="#ffe171"></path><path d="M77 0L32 35L97 27Z" fill="#ffbf0d" stroke="#ffbf0d"></path><path d="M857 129L813 102L814 142Z" fill="#ffe171" stroke="#ffe171"></path><path d="M825 225L857 129L814 142Z" fill="#fed960" stroke="#fed960"></path><path d="M32 35L23 101L97 27Z" fill="#fed24e" stroke="#fed24e"></path><path d="M783 250L850 250L825 225Z" fill="#fed24e" stroke="#fed24e"></path><path d="M825 225L900 146L857 129Z" fill="#ffc321" stroke="#ffc321"></path><path d="M0 69L0 87L23 101Z" fill="#ffe171" stroke="#ffe171"></path><path d="M23 101L0 172L75 148Z" fill="#ffc321" stroke="#ffc321"></path><path d="M0 87L0 172L23 101Z" fill="#fed24e" stroke="#fed24e"></path><path d="M32 35L0 69L23 101Z" fill="#ffe171" stroke="#ffe171"></path><path d="M0 172L0 176L64 192Z" fill="#fedd69" stroke="#fedd69"></path><path d="M77 0L0 0L32 35Z" fill="#fed24e" stroke="#fed24e"></path><path d="M32 35L0 0L0 69Z" fill="#fedd69" stroke="#fedd69"></path><path d="M0 176L0 250L44 250Z" fill="#fedd69" stroke="#fedd69"></path><path d="M900 225L900 146L825 225Z" fill="#fed24e" stroke="#fed24e"></path><path d="M857 129L900 146L857 114Z" fill="#fec72f" stroke="#fec72f"></path><path d="M857 114L900 91L824 64Z" fill="#ffe47a" stroke="#ffe47a"></path><path d="M900 146L900 91L857 114Z" fill="#ffe171" stroke="#ffe171"></path><path d="M900 91L900 29L824 59Z" fill="#fed960" stroke="#fed960"></path><path d="M850 250L900 225L825 225Z" fill="#ffe171" stroke="#ffe171"></path><path d="M900 29L900 0L835 0Z" fill="#fed960" stroke="#fed960"></path><path d="M850 250L900 250L900 225Z" fill="#fec72f" stroke="#fec72f"></path></g></svg>