<svg id="visual" viewBox="0 0 540 960" width="540" height="960" xmlns="http://www.w3.org/2000/svg" xmlns:xlink="http://www.w3.org/1999/xlink" version="1.1"><rect width="540" height="960" fill="#ffffff"></rect><g><g transform="translate(501 132)"><path d="M35 -29.4C41.9 -19.1 41.9 -4.8 38.4 8C34.9 20.8 27.8 32 17.8 36.6C7.8 41.2 -5.1 39.3 -14.8 33.6C-24.5 27.8 -30.9 18.2 -33.5 7.5C-36 -3.2 -34.7 -14.8 -28.4 -25C-22.2 -35.2 -11.1 -43.8 1.4 -44.9C14 -46.1 28 -39.8 35 -29.4Z" fill="#ffe47a"></path></g><g transform="translate(6 144)"><path d="M23.5 -22C28.4 -12.7 28.7 -3 26.8 6.5C24.9 16 20.8 25.3 13.7 28.9C6.6 32.5 -3.5 30.3 -10.4 25.5C-17.3 20.6 -21.1 13.2 -24.3 4.1C-27.6 -5 -30.2 -15.6 -26.1 -24.8C-21.9 -34 -11 -41.7 -0.8 -41C9.3 -40.4 18.7 -31.4 23.5 -22Z" fill="#ffe47a"></path></g><g transform="translate(145 178)"><path d="M20.6 -13.3C27.3 -8 33.7 0.6 33.2 9.5C32.7 18.5 25.3 27.8 16.7 30.1C8.2 32.4 -1.5 27.8 -9.6 22.8C-17.8 17.8 -24.4 12.4 -26.5 5.4C-28.6 -1.6 -26.1 -10.2 -20.9 -15.1C-15.7 -20 -7.9 -21.2 -0.5 -20.8C7 -20.4 13.9 -18.5 20.6 -13.3Z" fill="#ffe47a"></path></g><g transform="translate(449 912)"><path d="M19.1 -14.4C23.4 -9.8 24.7 -1.9 22.6 4.3C20.5 10.5 15 15.1 8.7 18.2C2.3 21.4 -4.8 23.1 -10.1 20.7C-15.3 18.2 -18.7 11.6 -20.4 4.5C-22.1 -2.6 -22.3 -10.2 -18.6 -14.7C-14.9 -19.2 -7.5 -20.5 0 -20.5C7.4 -20.5 14.8 -19.1 19.1 -14.4Z" fill="#ffe47a"></path></g><g transform="translate(335 351)"><path d="M14.9 -12.2C18.2 -7.7 19.1 -1.6 18.4 5.3C17.7 12.2 15.5 19.8 9.7 24.1C4 28.3 -5.3 29.2 -12.5 25.8C-19.6 22.4 -24.8 14.6 -24.8 7.7C-24.8 0.7 -19.6 -5.4 -14.6 -10.3C-9.6 -15.2 -4.8 -18.9 0.5 -19.3C5.8 -19.7 11.6 -16.8 14.9 -12.2Z" fill="#ffe47a"></path></g><g transform="translate(304 848)"><path d="M19.8 -15.2C24 -10.5 24.5 -2.4 23 5.7C21.5 13.8 18 21.8 12 24.5C6.1 27.2 -2.2 24.5 -9.2 20.5C-16.2 16.6 -21.8 11.4 -24.5 4.3C-27.2 -2.9 -26.9 -12.1 -22.3 -16.8C-17.8 -21.5 -8.9 -21.8 -0.5 -21.4C7.8 -20.9 15.6 -19.8 19.8 -15.2Z" fill="#ffe47a"></path></g><g transform="translate(283 563)"><path d="M25.3 -19C30.7 -13.4 31.4 -3.1 28.6 5.5C25.8 14 19.5 20.6 11.9 24C4.3 27.4 -4.5 27.6 -11.8 24.2C-19 20.8 -24.6 13.9 -26.7 5.8C-28.9 -2.3 -27.4 -11.5 -22.4 -17C-17.3 -22.4 -8.7 -24.2 0.6 -24.7C10 -25.2 19.9 -24.5 25.3 -19Z" fill="#ffe47a"></path></g><g transform="translate(238 250)"><path d="M21 -18.9C24.5 -12.3 22.8 -3.8 20 2.9C17.1 9.6 13.2 14.5 8.1 16.9C3.1 19.4 -3.2 19.4 -10.6 17.6C-18.1 15.7 -26.7 11.9 -30.3 4.5C-33.9 -2.8 -32.3 -13.7 -26.4 -20.8C-20.5 -28 -10.3 -31.4 -0.8 -30.8C8.7 -30.2 17.5 -25.5 21 -18.9Z" fill="#ffe47a"></path></g><g transform="translate(1 751)"><path d="M28 -24.4C33 -15.9 31.7 -4.5 28.3 4.8C24.8 14.1 19.3 21.2 11 26.6C2.8 32 -8 35.6 -15.8 32.1C-23.5 28.6 -28.2 18.1 -28.4 8.9C-28.6 -0.3 -24.4 -8.2 -18.9 -16.7C-13.4 -25.2 -6.7 -34.3 2.4 -36.2C11.5 -38.1 22.9 -32.8 28 -24.4Z" fill="#ffe47a"></path></g><g transform="translate(289 29)"><path d="M27.9 -21C33.5 -15.2 33.6 -3.8 30 4.8C26.4 13.3 19.1 19 10.7 23.5C2.3 28.1 -7.2 31.5 -16.1 28.9C-24.9 26.4 -33 17.9 -33.9 9.1C-34.8 0.4 -28.5 -8.6 -21.6 -14.7C-14.8 -20.8 -7.4 -23.9 1.9 -25.4C11.1 -26.9 22.3 -26.8 27.9 -21Z" fill="#ffe47a"></path></g><g transform="translate(88 533)"><path d="M17.7 -14.4C22.6 -7.9 26 -0.6 25.7 8.1C25.5 16.7 21.6 26.8 13.7 32C5.7 37.2 -6.3 37.6 -15.9 33C-25.5 28.4 -32.8 18.8 -35.1 8.1C-37.5 -2.5 -34.9 -14.2 -28.3 -21.1C-21.6 -28 -10.8 -30.1 -2.2 -28.4C6.4 -26.6 12.8 -20.9 17.7 -14.4Z" fill="#ffe47a"></path></g><g transform="translate(92 2)"><path d="M24.4 -17.9C30.1 -12.3 32.2 -2.3 29.3 5.3C26.5 12.9 18.8 17.9 10.9 21C3.1 24.1 -4.8 25.3 -10.1 22.3C-15.3 19.2 -17.8 11.9 -20 4C-22.3 -3.9 -24.2 -12.4 -20.8 -17.4C-17.4 -22.5 -8.7 -24.1 0.3 -24.3C9.4 -24.6 18.7 -23.5 24.4 -17.9Z" fill="#ffe47a"></path></g><g transform="translate(4 380)"><path d="M17.6 -15.1C21.9 -8.7 23.7 -1.5 21.8 4.3C19.9 10 14.4 14.1 8.6 16.3C2.9 18.4 -3.1 18.6 -10.2 16.9C-17.3 15.1 -25.6 11.4 -28 5.2C-30.4 -1.1 -26.9 -9.8 -21.2 -16.5C-15.6 -23.2 -7.8 -27.7 -0.6 -27.3C6.7 -26.8 13.4 -21.4 17.6 -15.1Z" fill="#ffe47a"></path></g><g transform="translate(392 608)"><path d="M19.4 -12.8C26.4 -6.7 34.2 1.4 32.8 7.5C31.4 13.5 20.9 17.5 10.9 22.1C0.9 26.7 -8.5 31.9 -14.7 29.3C-20.9 26.8 -23.8 16.5 -25.4 6.6C-27 -3.2 -27.1 -12.5 -22.7 -18C-18.2 -23.5 -9.1 -25.3 -1.4 -24.2C6.2 -23 12.4 -18.9 19.4 -12.8Z" fill="#ffe47a"></path></g><g transform="translate(57 945)"><path d="M26.7 -22.1C31.2 -15.7 29.1 -4.8 26.2 5.3C23.4 15.3 19.8 24.5 12.9 28.5C6.1 32.4 -4.1 31.1 -11 26.4C-17.9 21.7 -21.6 13.7 -24.7 4.4C-27.9 -5 -30.5 -15.7 -26.3 -22.2C-22.1 -28.6 -11.1 -30.6 0 -30.6C11.1 -30.7 22.2 -28.6 26.7 -22.1Z" fill="#ffe47a"></path></g><g transform="translate(148 812)"><path d="M20.1 -19C24.7 -10.4 26 -2.1 24.3 5.7C22.7 13.6 18.1 20.9 10.4 26.4C2.7 32 -8.1 35.7 -17.4 32.6C-26.6 29.5 -34.2 19.5 -37.8 7.6C-41.4 -4.4 -40.9 -18.3 -33.9 -27.6C-27 -36.8 -13.5 -41.4 -2.8 -39.1C7.8 -36.8 15.6 -27.7 20.1 -19Z" fill="#ffe47a"></path></g><g transform="translate(526 256)"><path d="M18.3 -14.8C21.9 -10.1 21.7 -2.6 20.4 5.4C19.2 13.3 16.8 21.7 10.9 25.7C5 29.7 -4.5 29.4 -12.2 25.6C-20 21.8 -25.9 14.5 -26.5 7.4C-27 0.3 -22.1 -6.7 -16.8 -11.8C-11.5 -16.9 -5.7 -20 0.8 -20.6C7.3 -21.3 14.7 -19.4 18.3 -14.8Z" fill="#ffe47a"></path></g><g transform="translate(160 626)"><path d="M22.8 -19.7C26.5 -13.5 24.4 -4.2 21.3 3C18.2 10.3 14 15.4 8.2 19C2.3 22.6 -5.3 24.6 -12.2 22.4C-19.2 20.2 -25.5 13.7 -28.2 5.4C-30.9 -2.9 -30.1 -13.1 -24.8 -19.7C-19.5 -26.2 -9.7 -29 -0.1 -29C9.5 -28.9 19.1 -25.9 22.8 -19.7Z" fill="#ffe47a"></path></g><g transform="translate(132 410)"><path d="M20.4 -14.5C26.1 -9 30.3 -0.6 28 5.2C25.8 10.9 17 14 9.8 15.7C2.6 17.4 -3.1 17.7 -8.7 15.8C-14.3 14 -19.9 9.9 -21.4 4.5C-22.8 -0.8 -20.3 -7.5 -16 -12.6C-11.8 -17.7 -5.9 -21.3 0.7 -21.8C7.3 -22.4 14.6 -19.9 20.4 -14.5Z" fill="#ffe47a"></path></g><g transform="translate(442 31)"><path d="M22.3 -17.7C28.3 -10.3 32.1 -1 31.8 10C31.4 21.1 27 33.9 18.8 37C10.7 40.1 -1.1 33.5 -9.6 26.7C-18.1 20 -23.2 13.3 -27.3 3.8C-31.4 -5.7 -34.5 -17.8 -29.8 -24.9C-25.1 -32 -12.5 -34 -2.2 -32.2C8.2 -30.5 16.3 -25 22.3 -17.7Z" fill="#ffe47a"></path></g><g transform="translate(500 805)"><path d="M17.9 -14.6C22.9 -7.9 26.6 -0.5 25.4 6.1C24.1 12.8 17.9 18.6 10.9 21.6C3.8 24.7 -4.2 24.9 -11.9 22.2C-19.7 19.4 -27.2 13.7 -28.3 7C-29.5 0.3 -24.1 -7.3 -18.3 -14.2C-12.5 -21.1 -6.3 -27.2 0.1 -27.2C6.4 -27.3 12.8 -21.3 17.9 -14.6Z" fill="#ffe47a"></path></g><g transform="translate(388 153)"><path d="M20.3 -16.4C25.3 -10 27.7 -1.6 25.5 5.1C23.4 11.7 16.9 16.5 9.9 19.5C2.9 22.5 -4.5 23.7 -10.8 21.1C-17 18.6 -22 12.4 -24.4 4.8C-26.7 -2.8 -26.4 -11.8 -21.9 -18.2C-17.4 -24.6 -8.7 -28.3 -0.5 -27.9C7.7 -27.5 15.3 -22.9 20.3 -16.4Z" fill="#ffe47a"></path></g><g transform="translate(521 461)"><path d="M21.6 -15C28.9 -8.1 36.3 0.9 35.2 8.9C34.1 16.8 24.4 23.6 14.2 27.9C4 32.2 -6.6 34 -15.7 30.4C-24.8 26.9 -32.4 18 -34.9 7.8C-37.4 -2.5 -34.8 -14.1 -28.1 -20.9C-21.5 -27.6 -10.7 -29.6 -1.8 -28.2C7.2 -26.7 14.3 -21.9 21.6 -15Z" fill="#ffe47a"></path></g><g transform="translate(37 257)"><path d="M26.5 -20.3C32.6 -13.4 34.8 -2.5 32.1 6.5C29.4 15.5 21.9 22.6 13.1 26.4C4.4 30.3 -5.4 31 -13.8 27.5C-22.3 23.9 -29.2 16.1 -30.3 8C-31.3 -0.2 -26.3 -8.6 -20.2 -15.5C-14.2 -22.4 -7.1 -27.9 1.5 -29.1C10.1 -30.3 20.3 -27.3 26.5 -20.3Z" fill="#ffe47a"></path></g><g transform="translate(389 736)"><path d="M22.8 -16.8C29.8 -9.3 36 0.2 35 9.4C34 18.6 25.8 27.5 16.1 31.3C6.4 35.2 -4.7 34.1 -13.2 29.3C-21.6 24.4 -27.4 16 -29.6 6.6C-31.9 -2.8 -30.6 -13.1 -25.1 -20.2C-19.6 -27.3 -9.8 -31.2 -1 -30.5C7.9 -29.7 15.7 -24.3 22.8 -16.8Z" fill="#ffe47a"></path></g><g transform="translate(488 667)"><path d="M30.3 -23.4C37.9 -14.7 41.7 -2.1 38.7 7.8C35.6 17.8 25.6 25.1 15.2 29.3C4.8 33.4 -6 34.2 -14.2 30.1C-22.4 25.9 -27.9 16.8 -30.8 6.4C-33.6 -4 -33.9 -15.6 -28.3 -23.8C-22.7 -32 -11.4 -36.9 0 -36.9C11.4 -36.9 22.8 -32.1 30.3 -23.4Z" fill="#ffe47a"></path></g><g transform="translate(234 729)"><path d="M18.7 -16.2C22.2 -10.5 21.6 -2.9 20 4.9C18.5 12.6 16.1 20.5 10.1 24.9C4.1 29.2 -5.4 30.1 -12.7 26.6C-20 23 -25.1 14.9 -27.4 5.9C-29.7 -3 -29.2 -13 -24.2 -19C-19.1 -25 -9.6 -27 -1 -26.2C7.6 -25.4 15.2 -21.8 18.7 -16.2Z" fill="#ffe47a"></path></g><g transform="translate(407 465)"><path d="M16.3 -14C21.2 -7 25.1 -0.2 24 5.8C22.9 11.7 16.7 16.9 9.3 21.1C1.9 25.4 -6.8 28.8 -11.8 25.8C-16.8 22.9 -18.2 13.7 -20.4 4.5C-22.7 -4.7 -25.8 -13.9 -22.6 -20.6C-19.3 -27.3 -9.7 -31.4 -2 -29.8C5.8 -28.3 11.5 -21 16.3 -14Z" fill="#ffe47a"></path></g><g transform="translate(471 355)"><path d="M21.8 -15.4C28.3 -9.2 33.8 -0.1 32.4 7.9C31 15.9 22.7 22.9 13.6 26.5C4.6 30.2 -5.1 30.5 -12.8 26.7C-20.4 23 -25.9 15.1 -27.8 6.5C-29.7 -2.2 -27.9 -11.5 -22.7 -17.4C-17.4 -23.4 -8.7 -25.9 -0.5 -25.5C7.6 -25 15.2 -21.6 21.8 -15.4Z" fill="#ffe47a"></path></g><g transform="translate(237 939)"><path d="M15.2 -11.4C18.9 -7.5 20.5 -1.2 19.6 5.1C18.7 11.5 15.2 18 9.6 21.3C3.9 24.5 -3.9 24.5 -11.4 21.7C-18.8 18.8 -25.9 13.2 -27.6 6.2C-29.3 -0.8 -25.6 -9.1 -20.1 -13.4C-14.6 -17.8 -7.3 -18.1 -0.8 -17.5C5.8 -16.9 11.5 -15.4 15.2 -11.4Z" fill="#ffe47a"></path></g><g transform="translate(253 451)"><path d="M22.2 -18.3C26.2 -12.7 25 -3.6 22.9 5.1C20.8 13.8 17.8 22.2 10.7 27.6C3.6 33.1 -7.4 35.7 -16.5 32.2C-25.6 28.6 -32.7 18.8 -32.9 9.8C-33.1 0.8 -26.4 -7.5 -19.8 -13.6C-13.1 -19.8 -6.6 -23.9 1.3 -24.9C9.1 -25.9 18.2 -23.8 22.2 -18.3Z" fill="#ffe47a"></path></g><g transform="translate(14 626)"><path d="M20.6 -17.7C26.1 -9.6 29.4 -1.1 27.8 6.6C26.3 14.2 19.8 21 12.5 23.7C5.2 26.3 -3 24.8 -9.4 21.1C-15.7 17.4 -20.2 11.5 -22.9 4C-25.7 -3.6 -26.7 -12.9 -22.6 -20.7C-18.5 -28.5 -9.2 -34.8 -0.8 -34.1C7.6 -33.5 15.2 -25.8 20.6 -17.7Z" fill="#ffe47a"></path></g><g transform="translate(258 138)"><path d="M19.6 -17.8C23.7 -10.6 24 -2.5 22.1 4.8C20.3 12.2 16.3 18.9 10.1 22.5C3.9 26 -4.6 26.5 -13.8 23.9C-23 21.3 -33 15.6 -37 6.2C-40.9 -3.2 -38.8 -16.2 -31.6 -24.2C-24.4 -32.2 -12.2 -35.1 -2.2 -33.3C7.8 -31.6 15.6 -25.1 19.6 -17.8Z" fill="#ffe47a"></path></g></g></svg>