<svg id="visual" viewBox="0 0 900 675" width="900" height="675" xmlns="http://www.w3.org/2000/svg" xmlns:xlink="http://www.w3.org/1999/xlink" version="1.1"><rect x="0" y="0" width="900" height="675" fill="#ffffff"></rect><defs><linearGradient id="grad1_0" x1="25%" y1="0%" x2="100%" y2="100%"><stop offset="23.333333333333336%" stop-color="#ffffff" stop-opacity="1"></stop><stop offset="76.66666666666666%" stop-color="#ffffff" stop-opacity="1"></stop></linearGradient></defs><defs><linearGradient id="grad2_0" x1="0%" y1="0%" x2="75%" y2="100%"><stop offset="23.333333333333336%" stop-color="#ffffff" stop-opacity="1"></stop><stop offset="76.66666666666666%" stop-color="#ffffff" stop-opacity="1"></stop></linearGradient></defs><g transform="translate(900, 0)"><path d="M0 337.5C-23.5 296.1 -47 254.7 -80.7 248.2C-114.3 241.7 -158.2 270 -194.6 267.8C-230.9 265.5 -259.8 232.7 -273 198.4C-286.3 164 -283.8 128.2 -292 94.9C-300.1 61.6 -318.8 30.8 -337.5 0L0 0Z" fill="#ffe47a"></path></g><g transform="translate(0, 675)"><path d="M0 -337.5C30.5 -308.3 61 -279.1 82.8 -254.9C104.6 -230.7 117.7 -211.5 149.3 -205.5C180.9 -199.4 231.1 -206.5 263.7 -191.6C296.4 -176.7 311.6 -139.9 321 -104.3C330.4 -68.7 333.9 -34.3 337.5 0L0 0Z" fill="#ffe47a"></path></g></svg>