<svg id="visual" viewBox="0 0 900 675" width="900" height="675" xmlns="http://www.w3.org/2000/svg" xmlns:xlink="http://www.w3.org/1999/xlink" version="1.1"><rect x="0" y="0" width="900" height="675" fill="#ffffff"></rect><path d="M0 279L21.5 241.7C43 204.3 86 129.7 128.8 111.3C171.7 93 214.3 131 257.2 135.7C300 140.3 343 111.7 385.8 110.8C428.7 110 471.3 137 514.2 169.5C557 202 600 240 642.8 245.8C685.7 251.7 728.3 225.3 771.2 229.3C814 233.3 857 267.7 878.5 284.8L900 302L900 676L878.5 676C857 676 814 676 771.2 676C728.3 676 685.7 676 642.8 676C600 676 557 676 514.2 676C471.3 676 428.7 676 385.8 676C343 676 300 676 257.2 676C214.3 676 171.7 676 128.8 676C86 676 43 676 21.5 676L0 676Z" fill="#ffe47a"></path><path d="M0 291L21.5 286.8C43 282.7 86 274.3 128.8 256.8C171.7 239.3 214.3 212.7 257.2 231.8C300 251 343 316 385.8 317.2C428.7 318.3 471.3 255.7 514.2 253.3C557 251 600 309 642.8 324.2C685.7 339.3 728.3 311.7 771.2 282.7C814 253.7 857 223.3 878.5 208.2L900 193L900 676L878.5 676C857 676 814 676 771.2 676C728.3 676 685.7 676 642.8 676C600 676 557 676 514.2 676C471.3 676 428.7 676 385.8 676C343 676 300 676 257.2 676C214.3 676 171.7 676 128.8 676C86 676 43 676 21.5 676L0 676Z" fill="#fedb64"></path><path d="M0 339L21.5 335.3C43 331.7 86 324.3 128.8 327.7C171.7 331 214.3 345 257.2 352.5C300 360 343 361 385.8 364.3C428.7 367.7 471.3 373.3 514.2 368.2C557 363 600 347 642.8 354C685.7 361 728.3 391 771.2 395.3C814 399.7 857 378.3 878.5 367.7L900 357L900 676L878.5 676C857 676 814 676 771.2 676C728.3 676 685.7 676 642.8 676C600 676 557 676 514.2 676C471.3 676 428.7 676 385.8 676C343 676 300 676 257.2 676C214.3 676 171.7 676 128.8 676C86 676 43 676 21.5 676L0 676Z" fill="#fed24e"></path><path d="M0 388L21.5 387C43 386 86 384 128.8 397.5C171.7 411 214.3 440 257.2 448.7C300 457.3 343 445.7 385.8 458.7C428.7 471.7 471.3 509.3 514.2 511.8C557 514.3 600 481.7 642.8 457.5C685.7 433.3 728.3 417.7 771.2 414.2C814 410.7 857 419.3 878.5 423.7L900 428L900 676L878.5 676C857 676 814 676 771.2 676C728.3 676 685.7 676 642.8 676C600 676 557 676 514.2 676C471.3 676 428.7 676 385.8 676C343 676 300 676 257.2 676C214.3 676 171.7 676 128.8 676C86 676 43 676 21.5 676L0 676Z" fill="#fec934"></path><path d="M0 491L21.5 493.2C43 495.3 86 499.7 128.8 506.8C171.7 514 214.3 524 257.2 532.5C300 541 343 548 385.8 545C428.7 542 471.3 529 514.2 531C557 533 600 550 642.8 552.7C685.7 555.3 728.3 543.7 771.2 548.5C814 553.3 857 574.7 878.5 585.3L900 596L900 676L878.5 676C857 676 814 676 771.2 676C728.3 676 685.7 676 642.8 676C600 676 557 676 514.2 676C471.3 676 428.7 676 385.8 676C343 676 300 676 257.2 676C214.3 676 171.7 676 128.8 676C86 676 43 676 21.5 676L0 676Z" fill="#ffbf0d"></path></svg>