<svg xmlns="http://www.w3.org/2000/svg" xmlns:xlink="http://www.w3.org/1999/xlink" width="454" height="405" viewBox="0 0 454 405">

  <g id="Artboard_2" data-name="Artboard – 2" clip-path="url(#clip-Artboard_2)">
    <rect width="400" height="400" fill="none"/>
    <g id="Polygon_1" data-name="Polygon 1" fill="#fff">
      <path d="M 438.6595153808594 390 L 17.3404712677002 390 C 16.21682357788086 390 15.17947101593018 389.7189025878906 14.25735282897949 389.1643676757813 C 13.3912353515625 388.6435852050781 12.66005897521973 387.8942565917969 12.14282321929932 386.9974365234375 C 11.62564659118652 386.1005859375 11.34329414367676 385.0924377441406 11.32635307312012 384.0819091796875 C 11.30829429626465 383.0060729980469 11.58447074890137 381.9674377441406 12.14729404449463 380.9948425292969 L 222.8068237304688 16.96036529541016 C 223.36865234375 15.98942375183105 224.1301727294922 15.23324680328369 225.0701751708984 14.71283531188965 C 225.953125 14.22395324707031 226.9662322998047 13.96554088592529 228 13.96554088592529 C 229.0337677001953 13.96554088592529 230.0468292236328 14.22395324707031 230.9298248291016 14.71283531188965 C 231.8697662353516 15.23324680328369 232.6312866210938 15.98942375183105 233.193115234375 16.96036529541016 L 443.8526916503906 380.9949035644531 C 444.41552734375 381.9674377441406 444.6917114257813 383.0060729980469 444.6736450195313 384.0819396972656 C 444.6567077636719 385.0924377441406 444.3744201660156 386.1005859375 443.857177734375 386.9974365234375 C 443.3399963378906 387.8943176269531 442.6088256835938 388.6435852050781 441.7427062988281 389.1643676757813 C 440.8205261230469 389.7189025878906 439.7832336425781 390 438.6595153808594 390 Z" stroke="none"/>
      <path d="M 227.9999389648438 17.96551513671875 C 227.4738159179688 17.96551513671875 226.7463684082031 18.13870239257813 226.2688751220703 18.96377563476563 L 15.609375 382.9983215332031 C 15.13113403320313 383.8248291015625 15.34457397460938 384.5425720214844 15.60787963867188 384.9991455078125 C 15.87118530273438 385.4557800292969 16.385498046875 386.0000305175781 17.34042358398438 386.0000305175781 L 438.6594848632813 386.0000305175781 C 439.6144409179688 386.0000305175781 440.1287536621094 385.4557189941406 440.3920593261719 384.9991455078125 C 440.6553649902344 384.5425109863281 440.8688659667969 383.8247680664063 440.390625 382.9982604980469 L 229.7310638427734 18.96383666992188 C 229.2535552978516 18.13870239257813 228.526123046875 17.96551513671875 227.9999389648438 17.96551513671875 M 227.9999694824219 9.965545654296875 C 231.3647918701172 9.965545654296875 234.7296295166016 11.62933349609375 236.6552429199219 14.9569091796875 L 447.3148193359375 378.9913940429688 C 451.1726989746094 385.6580200195313 446.3619384765625 394.0000305175781 438.6594848632813 394.0000305175781 L 17.34042358398438 394.0000305175781 C 9.63800048828125 394.0000305175781 4.827301025390625 385.6580200195313 8.6851806640625 378.9913940429688 L 219.3446807861328 14.9569091796875 C 221.2703094482422 11.62933349609375 224.6351470947266 9.965545654296875 227.9999694824219 9.965545654296875 Z" stroke="none" fill="#000"/>
    </g>
    <g id="Polygon_2" data-name="Polygon 2" transform="translate(74 118)" fill="#fff">
      <path d="M 291.9419860839844 272 L 17.0580005645752 272 C 15.94337463378906 272 14.91279125213623 271.7226257324219 13.99487495422363 271.1755981445313 C 13.13237476348877 270.6615905761719 12.40170860290527 269.9211730957031 11.88187503814697 269.0344543457031 C 11.36204147338867 268.147705078125 11.07287502288818 267.1484680175781 11.04566669464111 266.1448059082031 C 11.01666641235352 265.0766296386719 11.27804183959961 264.0418701171875 11.82245826721191 263.0692443847656 L 149.2644653320313 17.54179573059082 C 149.8212890625 16.54708862304688 150.5851287841797 15.77208805084229 151.5347137451172 15.23833751678467 C 152.4259948730469 14.73733806610107 153.4513702392578 14.47254657745361 154.5 14.47254657745361 C 155.548583984375 14.47254657745361 156.5739593505859 14.73733806610107 157.4652557373047 15.23833751678467 C 158.4148406982422 15.77208805084229 159.1786651611328 16.54708862304688 159.7355041503906 17.54179573059082 L 297.177490234375 263.0692443847656 C 297.7219543457031 264.0418701171875 297.9833374023438 265.0766296386719 297.954345703125 266.1448059082031 C 297.9271240234375 267.1484985351563 297.6379699707031 268.147705078125 297.1181335449219 269.034423828125 C 296.5982971191406 269.9211730957031 295.8676147460938 270.6615905761719 295.005126953125 271.1755981445313 C 294.0872192382813 271.7226257324219 293.0566101074219 272 291.9419860839844 272 Z" stroke="none"/>
      <path d="M 154.4999542236328 18.47256469726563 C 153.9650421142578 18.47256469726563 153.2280883789063 18.65008544921875 152.7547760009766 19.49563598632813 L 15.31280517578125 265.0230712890625 C 14.8502197265625 265.8494873046875 15.0682373046875 266.560546875 15.33258056640625 267.011474609375 C 15.59698486328125 267.4624328613281 16.11090087890625 268 17.05801391601563 268 L 291.9419860839844 268 C 292.8890991210938 268 293.4030151367188 267.4624328613281 293.6673583984375 267.0114440917969 C 293.9317321777344 266.5604858398438 294.1497802734375 265.8494873046875 293.6871948242188 265.0230712890625 L 156.2451782226563 19.49566650390625 C 155.7718658447266 18.65008544921875 155.0348663330078 18.47256469726563 154.4999542236328 18.47256469726563 M 154.4999847412109 10.47256469726563 C 157.9084014892578 10.47256469726563 161.3168334960938 12.17770385742188 163.2258605957031 15.58795166015625 L 300.6678771972656 261.1153869628906 C 304.3992614746094 267.7812194824219 299.5810852050781 276 291.9419860839844 276 L 17.05801391601563 276 C 9.418853759765625 276 4.600738525390625 267.7812194824219 8.332122802734375 261.1153869628906 L 145.7740936279297 15.58795166015625 C 147.6831207275391 12.17770385742188 151.091552734375 10.47256469726563 154.4999847412109 10.47256469726563 Z" stroke="none" fill="#000"/>
    </g>
    <g id="Polygon_3" data-name="Polygon 3" transform="translate(368 394) rotate(180)" fill="#fff">
      <path d="M 258.1657409667969 170.0000152587891 L 20.83428573608398 170.0000152587891 C 18.47017860412598 170.0000152587891 16.44807052612305 168.7275848388672 15.42507171630859 166.5963134765625 C 14.40210723876953 164.4650268554688 14.67421436309814 162.0914154052734 16.15299987792969 160.2469482421875 L 134.8187561035156 12.2337703704834 C 135.9635772705078 10.80580615997314 137.6698150634766 9.986842155456543 139.5 9.986842155456543 C 141.3301849365234 9.986842155456543 143.0364227294922 10.80580615997314 144.1812438964844 12.2337703704834 L 262.8469848632813 160.2469482421875 C 264.3257751464844 162.0914154052734 264.597900390625 164.4650268554688 263.5749206542969 166.5963134765625 C 262.5519714355469 168.7276306152344 260.5298156738281 170.0000152587891 258.1657409667969 170.0000152587891 Z" stroke="none"/>
      <path d="M 139.5 13.98681640625 C 139.0620880126953 13.98681640625 138.4358825683594 14.11672973632813 137.9395904541016 14.73580932617188 L 19.27383422851563 162.7489776611328 C 18.62319946289063 163.5605163574219 18.78280639648438 164.3478546142578 19.03121948242188 164.8654327392578 C 19.27963256835938 165.3830261230469 19.79409790039063 165.9999847412109 20.83425903320313 165.9999847412109 L 258.1657409667969 165.9999847412109 C 259.2059326171875 165.9999847412109 259.7203674316406 165.3830261230469 259.9687805175781 164.8654327392578 C 260.2172241210938 164.3478546142578 260.3768005371094 163.5605163574219 259.7261657714844 162.7489776611328 L 141.0604553222656 14.73580932617188 C 140.5641174316406 14.11677551269531 139.9379119873047 13.98681640625 139.5 13.98681640625 M 139.5 5.98681640625 C 142.4002838134766 5.98681640625 145.3005676269531 7.235107421875 147.3021240234375 9.731689453125 L 265.9678649902344 157.7448577880859 C 271.2158813476563 164.290771484375 266.5556945800781 173.9999847412109 258.1657409667969 173.9999847412109 L 20.83425903320313 173.9999847412109 C 12.44430541992188 173.9999847412109 7.78411865234375 164.290771484375 13.03213500976563 157.7448577880859 L 131.6978759765625 9.731689453125 C 133.6994323730469 7.235107421875 136.5997161865234 5.98681640625 139.5 5.98681640625 Z" stroke="none" fill="#000"/>
    </g>
  </g>
</svg>
